{"accessors" : [{"bufferView" : 0, "byteOffset" : 0, "componentType" : 5125, "count" : 596064, "type" : "SCALAR", "max" : [439849], "min" : [0]}, {"bufferView" : 1, "byteOffset" : 0, "componentType" : 5126, "count" : 439850, "type" : "VEC3", "max" : [47.22222137451172, 18.388891220092773, 5], "min" : [-48.33333206176758, -17.166669845581055, -5], "name" : "POSITION"}, {"bufferView" : 1, "byteOffset" : 12, "componentType" : 5126, "count" : 439850, "type" : "VEC3", "max" : [0.9999427199363708, 0.9999427199363708, 1.0000044107437134], "min" : [-0.9999427199363708, -0.9999427199363708, 0.0078600337728858], "name" : "NORMAL"}, {"bufferView" : 0, "byteOffset" : 2384256, "componentType" : 5123, "count" : 115674, "type" : "SCALAR", "max" : [29320], "min" : [0]}, {"bufferView" : 2, "byteOffset" : 0, "componentType" : 5126, "count" : 29321, "type" : "VEC3", "max" : [47.22222137451172, 18.388891220092773, -5], "min" : [-48.33333206176758, -17.166669845581055, -5], "name" : "POSITION"}, {"bufferView" : 2, "byteOffset" : 12, "componentType" : 5126, "count" : 29321, "type" : "VEC3", "max" : [0, 0, -1.0000044107437134], "min" : [0, 0, -1.0000044107437134], "name" : "NORMAL"}], "asset" : {"generator" : "Aspose.3D 24.6.0", "version" : "2.0"}, "buffers" : [{"uri" : "buffer.bin", "byteLength" : 13875720}], "bufferViews" : [{"buffer" : 0, "byteOffset" : 0, "byteLength" : 2615604, "target" : 34963}, {"buffer" : 0, "byteOffset" : 2615608, "byteLength" : 10556400, "byteStride" : 24, "target" : 34962}, {"buffer" : 0, "byteOffset" : 13172012, "byteLength" : 703704, "byteStride" : 24, "target" : 34962}], "meshes" : [{"primitives" : [{"attributes" : {"POSITION" : 1, "NORMAL" : 2}, "indices" : 0, "mode" : 4}], "name" : ""}, {"primitives" : [{"attributes" : {"POSITION" : 4, "NORMAL" : 5}, "indices" : 3, "mode" : 4}], "name" : ""}], "nodes" : [{"mesh" : 0, "name" : "obj1"}, {"mesh" : 1, "name" : "obj2"}], "scene" : 0, "scenes" : [{"nodes" : [0, 1]}]}